<mxfile host="app.diagrams.net" modified="2023-10-09T08:16:08.590Z" agent="Mozilla/5.0 (Macintosh; Intel Mac OS X 10_15_7) AppleWebKit/537.36 (KHTML, like Gecko) Chrome/117.0.0.0 Safari/537.36" etag="6ZokjzbwuqO93GHy5bro" version="22.0.4" type="github">
  <diagram id="C5RBs43oDa-KdzZeNtuy" name="Page-1">
    <mxGraphModel dx="1853" dy="1823" grid="1" gridSize="10" guides="1" tooltips="1" connect="1" arrows="1" fold="1" page="1" pageScale="1" pageWidth="827" pageHeight="1169" math="0" shadow="0">
      <root>
        <mxCell id="WIyWlLk6GJQsqaUBKTNV-0" />
        <mxCell id="WIyWlLk6GJQsqaUBKTNV-1" parent="WIyWlLk6GJQsqaUBKTNV-0" />
        <mxCell id="ejP932ojGydbnCkMtGX3-4" style="edgeStyle=orthogonalEdgeStyle;rounded=0;orthogonalLoop=1;jettySize=auto;html=1;exitX=0.5;exitY=1;exitDx=0;exitDy=0;entryX=0.5;entryY=0;entryDx=0;entryDy=0;" edge="1" parent="WIyWlLk6GJQsqaUBKTNV-1" source="WIyWlLk6GJQsqaUBKTNV-3" target="ejP932ojGydbnCkMtGX3-1">
          <mxGeometry relative="1" as="geometry" />
        </mxCell>
        <mxCell id="WIyWlLk6GJQsqaUBKTNV-3" value="查库&lt;br&gt;填充mhotelId" style="rounded=1;whiteSpace=wrap;html=1;fontSize=12;glass=0;strokeWidth=1;shadow=0;" parent="WIyWlLk6GJQsqaUBKTNV-1" vertex="1">
          <mxGeometry x="160" y="-50" width="120" height="40" as="geometry" />
        </mxCell>
        <mxCell id="WIyWlLk6GJQsqaUBKTNV-4" value="Yes" style="rounded=0;html=1;jettySize=auto;orthogonalLoop=1;fontSize=11;endArrow=block;endFill=0;endSize=8;strokeWidth=1;shadow=0;labelBackgroundColor=none;edgeStyle=orthogonalEdgeStyle;" parent="WIyWlLk6GJQsqaUBKTNV-1" source="WIyWlLk6GJQsqaUBKTNV-6" edge="1">
          <mxGeometry y="20" relative="1" as="geometry">
            <mxPoint as="offset" />
            <mxPoint x="220" y="290" as="targetPoint" />
          </mxGeometry>
        </mxCell>
        <mxCell id="WIyWlLk6GJQsqaUBKTNV-5" value="No" style="edgeStyle=orthogonalEdgeStyle;rounded=0;html=1;jettySize=auto;orthogonalLoop=1;fontSize=11;endArrow=block;endFill=0;endSize=8;strokeWidth=1;shadow=0;labelBackgroundColor=none;" parent="WIyWlLk6GJQsqaUBKTNV-1" source="WIyWlLk6GJQsqaUBKTNV-6" target="WIyWlLk6GJQsqaUBKTNV-7" edge="1">
          <mxGeometry y="10" relative="1" as="geometry">
            <mxPoint as="offset" />
          </mxGeometry>
        </mxCell>
        <mxCell id="WIyWlLk6GJQsqaUBKTNV-6" value="code为0？" style="rhombus;whiteSpace=wrap;html=1;shadow=0;fontFamily=Helvetica;fontSize=12;align=center;strokeWidth=1;spacing=6;spacingTop=-4;" parent="WIyWlLk6GJQsqaUBKTNV-1" vertex="1">
          <mxGeometry x="170" y="170" width="100" height="80" as="geometry" />
        </mxCell>
        <mxCell id="WIyWlLk6GJQsqaUBKTNV-7" value="组装不可售信息返回" style="rounded=1;whiteSpace=wrap;html=1;fontSize=12;glass=0;strokeWidth=1;shadow=0;" parent="WIyWlLk6GJQsqaUBKTNV-1" vertex="1">
          <mxGeometry x="320" y="190" width="120" height="40" as="geometry" />
        </mxCell>
        <mxCell id="WIyWlLk6GJQsqaUBKTNV-11" value="" style="rounded=1;whiteSpace=wrap;html=1;fontSize=12;glass=0;strokeWidth=1;shadow=0;" parent="WIyWlLk6GJQsqaUBKTNV-1" vertex="1">
          <mxGeometry x="20" y="290" width="890" height="640" as="geometry" />
        </mxCell>
        <mxCell id="ejP932ojGydbnCkMtGX3-6" style="edgeStyle=orthogonalEdgeStyle;rounded=0;orthogonalLoop=1;jettySize=auto;html=1;exitX=0.5;exitY=1;exitDx=0;exitDy=0;entryX=0.5;entryY=0;entryDx=0;entryDy=0;" edge="1" parent="WIyWlLk6GJQsqaUBKTNV-1" source="ejP932ojGydbnCkMtGX3-0" target="WIyWlLk6GJQsqaUBKTNV-6">
          <mxGeometry relative="1" as="geometry" />
        </mxCell>
        <mxCell id="ejP932ojGydbnCkMtGX3-0" value="调hotelDetail接口" style="rounded=1;whiteSpace=wrap;html=1;" vertex="1" parent="WIyWlLk6GJQsqaUBKTNV-1">
          <mxGeometry x="160" y="100" width="120" height="40" as="geometry" />
        </mxCell>
        <mxCell id="ejP932ojGydbnCkMtGX3-3" style="edgeStyle=orthogonalEdgeStyle;rounded=0;orthogonalLoop=1;jettySize=auto;html=1;exitX=0;exitY=0.5;exitDx=0;exitDy=0;entryX=1;entryY=0.5;entryDx=0;entryDy=0;" edge="1" parent="WIyWlLk6GJQsqaUBKTNV-1" source="ejP932ojGydbnCkMtGX3-1" target="ejP932ojGydbnCkMtGX3-2">
          <mxGeometry relative="1" as="geometry" />
        </mxCell>
        <mxCell id="ejP932ojGydbnCkMtGX3-5" style="edgeStyle=orthogonalEdgeStyle;rounded=0;orthogonalLoop=1;jettySize=auto;html=1;exitX=0.5;exitY=1;exitDx=0;exitDy=0;entryX=0.5;entryY=0;entryDx=0;entryDy=0;" edge="1" parent="WIyWlLk6GJQsqaUBKTNV-1" source="ejP932ojGydbnCkMtGX3-1" target="ejP932ojGydbnCkMtGX3-0">
          <mxGeometry relative="1" as="geometry" />
        </mxCell>
        <mxCell id="ejP932ojGydbnCkMtGX3-1" value="mhotelId为空?" style="rhombus;whiteSpace=wrap;html=1;" vertex="1" parent="WIyWlLk6GJQsqaUBKTNV-1">
          <mxGeometry x="160" y="20" width="120" height="50" as="geometry" />
        </mxCell>
        <mxCell id="ejP932ojGydbnCkMtGX3-2" value="return &lt;br&gt;rp不存在" style="rounded=1;whiteSpace=wrap;html=1;" vertex="1" parent="WIyWlLk6GJQsqaUBKTNV-1">
          <mxGeometry x="-10" y="15" width="120" height="60" as="geometry" />
        </mxCell>
        <mxCell id="ejP932ojGydbnCkMtGX3-7" value="构建产品" style="text;html=1;align=center;verticalAlign=middle;resizable=0;points=[];autosize=1;strokeColor=none;fillColor=none;" vertex="1" parent="WIyWlLk6GJQsqaUBKTNV-1">
          <mxGeometry x="140" y="260" width="70" height="30" as="geometry" />
        </mxCell>
        <mxCell id="ejP932ojGydbnCkMtGX3-12" style="edgeStyle=orthogonalEdgeStyle;rounded=0;orthogonalLoop=1;jettySize=auto;html=1;exitX=0.5;exitY=1;exitDx=0;exitDy=0;entryX=0.5;entryY=0;entryDx=0;entryDy=0;" edge="1" parent="WIyWlLk6GJQsqaUBKTNV-1" source="ejP932ojGydbnCkMtGX3-8" target="ejP932ojGydbnCkMtGX3-9">
          <mxGeometry relative="1" as="geometry" />
        </mxCell>
        <mxCell id="ejP932ojGydbnCkMtGX3-8" value="查库，获取补充信息" style="rounded=1;whiteSpace=wrap;html=1;" vertex="1" parent="WIyWlLk6GJQsqaUBKTNV-1">
          <mxGeometry x="60" y="310" width="120" height="30" as="geometry" />
        </mxCell>
        <mxCell id="ejP932ojGydbnCkMtGX3-13" style="edgeStyle=orthogonalEdgeStyle;rounded=0;orthogonalLoop=1;jettySize=auto;html=1;exitX=0.5;exitY=1;exitDx=0;exitDy=0;entryX=0.5;entryY=0;entryDx=0;entryDy=0;" edge="1" parent="WIyWlLk6GJQsqaUBKTNV-1" source="ejP932ojGydbnCkMtGX3-9" target="ejP932ojGydbnCkMtGX3-10">
          <mxGeometry relative="1" as="geometry" />
        </mxCell>
        <mxCell id="ejP932ojGydbnCkMtGX3-15" style="edgeStyle=orthogonalEdgeStyle;rounded=0;orthogonalLoop=1;jettySize=auto;html=1;exitX=1;exitY=0.5;exitDx=0;exitDy=0;entryX=0;entryY=0.5;entryDx=0;entryDy=0;" edge="1" parent="WIyWlLk6GJQsqaUBKTNV-1" source="ejP932ojGydbnCkMtGX3-9" target="ejP932ojGydbnCkMtGX3-14">
          <mxGeometry relative="1" as="geometry" />
        </mxCell>
        <mxCell id="ejP932ojGydbnCkMtGX3-9" value="参数组装" style="rounded=1;whiteSpace=wrap;html=1;" vertex="1" parent="WIyWlLk6GJQsqaUBKTNV-1">
          <mxGeometry x="60" y="360" width="120" height="30" as="geometry" />
        </mxCell>
        <mxCell id="ejP932ojGydbnCkMtGX3-10" value="数据排序" style="rounded=1;whiteSpace=wrap;html=1;" vertex="1" parent="WIyWlLk6GJQsqaUBKTNV-1">
          <mxGeometry x="60" y="410" width="120" height="30" as="geometry" />
        </mxCell>
        <mxCell id="ejP932ojGydbnCkMtGX3-14" value="" style="rounded=1;whiteSpace=wrap;html=1;" vertex="1" parent="WIyWlLk6GJQsqaUBKTNV-1">
          <mxGeometry x="230" y="310" width="660" height="490" as="geometry" />
        </mxCell>
        <mxCell id="ejP932ojGydbnCkMtGX3-20" style="edgeStyle=orthogonalEdgeStyle;rounded=0;orthogonalLoop=1;jettySize=auto;html=1;exitX=0.5;exitY=1;exitDx=0;exitDy=0;entryX=0.5;entryY=0;entryDx=0;entryDy=0;" edge="1" parent="WIyWlLk6GJQsqaUBKTNV-1" source="ejP932ojGydbnCkMtGX3-16" target="ejP932ojGydbnCkMtGX3-17">
          <mxGeometry relative="1" as="geometry" />
        </mxCell>
        <mxCell id="ejP932ojGydbnCkMtGX3-16" value="酒店静态信息" style="rounded=1;whiteSpace=wrap;html=1;" vertex="1" parent="WIyWlLk6GJQsqaUBKTNV-1">
          <mxGeometry x="260" y="330" width="120" height="30" as="geometry" />
        </mxCell>
        <mxCell id="ejP932ojGydbnCkMtGX3-21" style="edgeStyle=orthogonalEdgeStyle;rounded=0;orthogonalLoop=1;jettySize=auto;html=1;exitX=0.5;exitY=1;exitDx=0;exitDy=0;entryX=0.5;entryY=0;entryDx=0;entryDy=0;" edge="1" parent="WIyWlLk6GJQsqaUBKTNV-1" source="ejP932ojGydbnCkMtGX3-17" target="ejP932ojGydbnCkMtGX3-18">
          <mxGeometry relative="1" as="geometry" />
        </mxCell>
        <mxCell id="ejP932ojGydbnCkMtGX3-24" style="edgeStyle=orthogonalEdgeStyle;rounded=0;orthogonalLoop=1;jettySize=auto;html=1;exitX=1;exitY=0.5;exitDx=0;exitDy=0;entryX=0;entryY=0.5;entryDx=0;entryDy=0;" edge="1" parent="WIyWlLk6GJQsqaUBKTNV-1" source="ejP932ojGydbnCkMtGX3-17" target="ejP932ojGydbnCkMtGX3-23">
          <mxGeometry relative="1" as="geometry" />
        </mxCell>
        <mxCell id="ejP932ojGydbnCkMtGX3-17" value="可售信息" style="rounded=1;whiteSpace=wrap;html=1;" vertex="1" parent="WIyWlLk6GJQsqaUBKTNV-1">
          <mxGeometry x="260" y="380" width="120" height="30" as="geometry" />
        </mxCell>
        <mxCell id="ejP932ojGydbnCkMtGX3-22" style="edgeStyle=orthogonalEdgeStyle;rounded=0;orthogonalLoop=1;jettySize=auto;html=1;exitX=0.5;exitY=1;exitDx=0;exitDy=0;" edge="1" parent="WIyWlLk6GJQsqaUBKTNV-1" source="ejP932ojGydbnCkMtGX3-18" target="ejP932ojGydbnCkMtGX3-19">
          <mxGeometry relative="1" as="geometry" />
        </mxCell>
        <mxCell id="ejP932ojGydbnCkMtGX3-38" style="edgeStyle=orthogonalEdgeStyle;rounded=0;orthogonalLoop=1;jettySize=auto;html=1;exitX=1;exitY=0.5;exitDx=0;exitDy=0;entryX=0;entryY=0.5;entryDx=0;entryDy=0;" edge="1" parent="WIyWlLk6GJQsqaUBKTNV-1" source="ejP932ojGydbnCkMtGX3-18" target="ejP932ojGydbnCkMtGX3-37">
          <mxGeometry relative="1" as="geometry" />
        </mxCell>
        <mxCell id="ejP932ojGydbnCkMtGX3-18" value="不可售信息" style="rounded=1;whiteSpace=wrap;html=1;" vertex="1" parent="WIyWlLk6GJQsqaUBKTNV-1">
          <mxGeometry x="260" y="430" width="120" height="30" as="geometry" />
        </mxCell>
        <mxCell id="ejP932ojGydbnCkMtGX3-48" style="edgeStyle=orthogonalEdgeStyle;rounded=0;orthogonalLoop=1;jettySize=auto;html=1;exitX=0.5;exitY=1;exitDx=0;exitDy=0;entryX=0;entryY=0.5;entryDx=0;entryDy=0;" edge="1" parent="WIyWlLk6GJQsqaUBKTNV-1" source="ejP932ojGydbnCkMtGX3-19" target="ejP932ojGydbnCkMtGX3-43">
          <mxGeometry relative="1" as="geometry" />
        </mxCell>
        <mxCell id="ejP932ojGydbnCkMtGX3-19" value="不可解析数据" style="rounded=1;whiteSpace=wrap;html=1;" vertex="1" parent="WIyWlLk6GJQsqaUBKTNV-1">
          <mxGeometry x="260" y="480" width="120" height="30" as="geometry" />
        </mxCell>
        <mxCell id="ejP932ojGydbnCkMtGX3-23" value="" style="rounded=1;whiteSpace=wrap;html=1;" vertex="1" parent="WIyWlLk6GJQsqaUBKTNV-1">
          <mxGeometry x="465" y="75" width="360" height="380" as="geometry" />
        </mxCell>
        <mxCell id="ejP932ojGydbnCkMtGX3-25" value="根据入参过滤小时房或日历房" style="rounded=1;whiteSpace=wrap;html=1;" vertex="1" parent="WIyWlLk6GJQsqaUBKTNV-1">
          <mxGeometry x="495" y="100" width="120" height="40" as="geometry" />
        </mxCell>
        <mxCell id="ejP932ojGydbnCkMtGX3-26" value="组装餐食信息" style="rounded=1;whiteSpace=wrap;html=1;" vertex="1" parent="WIyWlLk6GJQsqaUBKTNV-1">
          <mxGeometry x="495" y="165" width="120" height="35" as="geometry" />
        </mxCell>
        <mxCell id="ejP932ojGydbnCkMtGX3-27" value="供应商信息" style="rounded=1;whiteSpace=wrap;html=1;" vertex="1" parent="WIyWlLk6GJQsqaUBKTNV-1">
          <mxGeometry x="495" y="225" width="120" height="35" as="geometry" />
        </mxCell>
        <mxCell id="ejP932ojGydbnCkMtGX3-28" value="开票模式" style="rounded=1;whiteSpace=wrap;html=1;" vertex="1" parent="WIyWlLk6GJQsqaUBKTNV-1">
          <mxGeometry x="495" y="340" width="120" height="35" as="geometry" />
        </mxCell>
        <mxCell id="ejP932ojGydbnCkMtGX3-29" value="酒店星级" style="rounded=1;whiteSpace=wrap;html=1;" vertex="1" parent="WIyWlLk6GJQsqaUBKTNV-1">
          <mxGeometry x="495" y="280" width="120" height="35" as="geometry" />
        </mxCell>
        <mxCell id="ejP932ojGydbnCkMtGX3-30" value="产品类型" style="rounded=1;whiteSpace=wrap;html=1;" vertex="1" parent="WIyWlLk6GJQsqaUBKTNV-1">
          <mxGeometry x="495" y="400" width="120" height="35" as="geometry" />
        </mxCell>
        <mxCell id="ejP932ojGydbnCkMtGX3-31" value="总原始底价" style="rounded=1;whiteSpace=wrap;html=1;" vertex="1" parent="WIyWlLk6GJQsqaUBKTNV-1">
          <mxGeometry x="655" y="280" width="120" height="35" as="geometry" />
        </mxCell>
        <mxCell id="ejP932ojGydbnCkMtGX3-32" value="总卖价" style="rounded=1;whiteSpace=wrap;html=1;" vertex="1" parent="WIyWlLk6GJQsqaUBKTNV-1">
          <mxGeometry x="655" y="400" width="120" height="35" as="geometry" />
        </mxCell>
        <mxCell id="ejP932ojGydbnCkMtGX3-33" value="总底价" style="rounded=1;whiteSpace=wrap;html=1;" vertex="1" parent="WIyWlLk6GJQsqaUBKTNV-1">
          <mxGeometry x="655" y="340" width="120" height="35" as="geometry" />
        </mxCell>
        <mxCell id="ejP932ojGydbnCkMtGX3-34" value="促销信息" style="rounded=1;whiteSpace=wrap;html=1;" vertex="1" parent="WIyWlLk6GJQsqaUBKTNV-1">
          <mxGeometry x="655" y="165" width="120" height="35" as="geometry" />
        </mxCell>
        <mxCell id="ejP932ojGydbnCkMtGX3-35" value="产品信息" style="rounded=1;whiteSpace=wrap;html=1;" vertex="1" parent="WIyWlLk6GJQsqaUBKTNV-1">
          <mxGeometry x="655" y="225" width="120" height="35" as="geometry" />
        </mxCell>
        <mxCell id="ejP932ojGydbnCkMtGX3-36" value="每日价" style="rounded=1;whiteSpace=wrap;html=1;" vertex="1" parent="WIyWlLk6GJQsqaUBKTNV-1">
          <mxGeometry x="655" y="105" width="120" height="35" as="geometry" />
        </mxCell>
        <mxCell id="ejP932ojGydbnCkMtGX3-37" value="" style="rounded=1;whiteSpace=wrap;html=1;" vertex="1" parent="WIyWlLk6GJQsqaUBKTNV-1">
          <mxGeometry x="460" y="480" width="370" height="140" as="geometry" />
        </mxCell>
        <mxCell id="ejP932ojGydbnCkMtGX3-39" value="供应商信息" style="rounded=1;whiteSpace=wrap;html=1;" vertex="1" parent="WIyWlLk6GJQsqaUBKTNV-1">
          <mxGeometry x="495" y="500" width="120" height="35" as="geometry" />
        </mxCell>
        <mxCell id="ejP932ojGydbnCkMtGX3-40" value="产品信息" style="rounded=1;whiteSpace=wrap;html=1;" vertex="1" parent="WIyWlLk6GJQsqaUBKTNV-1">
          <mxGeometry x="655" y="500" width="120" height="35" as="geometry" />
        </mxCell>
        <mxCell id="ejP932ojGydbnCkMtGX3-41" value="不可售维度" style="rounded=1;whiteSpace=wrap;html=1;" vertex="1" parent="WIyWlLk6GJQsqaUBKTNV-1">
          <mxGeometry x="495" y="560" width="120" height="35" as="geometry" />
        </mxCell>
        <mxCell id="ejP932ojGydbnCkMtGX3-42" value="不可售原因" style="rounded=1;whiteSpace=wrap;html=1;" vertex="1" parent="WIyWlLk6GJQsqaUBKTNV-1">
          <mxGeometry x="655" y="560" width="120" height="35" as="geometry" />
        </mxCell>
        <mxCell id="ejP932ojGydbnCkMtGX3-43" value="" style="rounded=1;whiteSpace=wrap;html=1;" vertex="1" parent="WIyWlLk6GJQsqaUBKTNV-1">
          <mxGeometry x="460" y="650" width="370" height="130" as="geometry" />
        </mxCell>
        <mxCell id="ejP932ojGydbnCkMtGX3-44" value="维度" style="rounded=1;whiteSpace=wrap;html=1;" vertex="1" parent="WIyWlLk6GJQsqaUBKTNV-1">
          <mxGeometry x="495" y="660" width="120" height="35" as="geometry" />
        </mxCell>
        <mxCell id="ejP932ojGydbnCkMtGX3-45" value="错误码" style="rounded=1;whiteSpace=wrap;html=1;" vertex="1" parent="WIyWlLk6GJQsqaUBKTNV-1">
          <mxGeometry x="655" y="660" width="120" height="35" as="geometry" />
        </mxCell>
        <mxCell id="ejP932ojGydbnCkMtGX3-46" value="原因" style="rounded=1;whiteSpace=wrap;html=1;" vertex="1" parent="WIyWlLk6GJQsqaUBKTNV-1">
          <mxGeometry x="495" y="720" width="120" height="35" as="geometry" />
        </mxCell>
      </root>
    </mxGraphModel>
  </diagram>
</mxfile>
